<svg id="shapes" xmlns="http://www.w3.org/2000/svg" width="112" height="107" viewBox="0 0 112 107">
  <g fill="#676767" fill-rule="evenodd">
    <path id="circle" d="M56,105 C84.718807,105 108,81.718807 108,53 C108,41.7295075 104.41443,31.2964697 98.3217677,22.7793652 C88.8894663,9.59368439 73.4483144,1 56,1 C27.281193,1 4,24.281193 4,53 C4,81.718807 27.281193,105 56,105 Z"/>
    <polygon id="triangle" points="56 5 112 101.995 0 101.995" opacity="0" />
    <polygon id="square" points="6 3 106 3 106 49.78 106 103 6 103" opacity="0" />
    <polygon id="pentagon" points="56 0 112 40.686 90.61 106.518 21.39 106.518 0 40.686" opacity="0" />
    <polygon id="cross" points="40.7 37.7 40.7 2 71.3 2 71.3 37.7 107 37.7 107 68.3 71.3 68.3 71.3 104 40.7 104 40.7 68.3 5 68.3 5 37.7" opacity="0" />
  </g>
</svg>
