<svg id="shapes" xmlns="http://www.w3.org/2000/svg" width="104" height="104" viewBox="0 0 104 104">
  <g fill="#676767" fill-rule="evenodd" transform="translate(-4 -1)">
    <path id="circle" d="M56,105 C63.8173192,105 71.231744,103.275004 77.8833955,100.18489 C83.739079,97.4645544 89.0036207,93.6862659 93.4314927,89.0955526 C98.7176723,83.6149663 102.811381,76.9764645 105.294846,69.5978209 C107.049192,64.3854669 108,58.80377 108,53 C108,46.7615167 106.901423,40.7796198 104.887172,35.2372118 C102.617817,28.9928615 99.186161,23.3063716 94.8537732,18.439311 C90.1222375,13.1238426 84.3163534,8.78574889 77.776851,5.76575988 C71.1526059,2.70663616 63.7756061,1 56,1 C49.0420655,1 42.4033114,2.36657389 36.3374981,4.8459613 C30.0519532,7.41516348 24.3816101,11.1792618 19.6088171,15.8559079 C14.7275427,20.6388501 10.7850833,26.3762942 8.08348086,32.7661983 C5.45399189,38.9855377 4,45.8229698 4,53 C4,60.3613155 5.52961914,67.3653694 8.28835423,73.7116583 C11.1020728,80.1844332 15.1943898,85.9729625 20.2464739,90.7584148 C25.2476987,95.495692 31.1894638,99.2499865 37.7624703,101.711999 C43.4374589,103.837647 49.5829884,105 56,105 Z"/>
    <polygon id="triangle" d="M56 5 67.73 25.316 82.905 51.601 99.177 79.784 112 101.995 85.876 101.995 57.537 101.995 28.857 101.995 0 101.995 13.167 79.189 28.08 53.36 41.426 30.244" opacity="0"/>
    <polygon id="square" d="M6 3 38.548 3 73.355 3 106 3 106 31.774 106 66.845 106 103 78.346 103 41.309 103 6 103 6 69.118 6 33.468" opacity="0"/>
    <polygon id="pentagon" d="M56 0 76.545 14.927 96.532 29.448 112 40.686 100.838 75.039 90.61 106.518 58.397 106.518 21.39 106.518 11.989 77.583 0 40.686 14.89 29.868 38.94 12.395" opacity="0"/>
    <polygon id="cross" d="M40.7 37.7 40.7 2 71.3 2 71.3 37.7 107 37.7 107 68.3 71.3 68.3 71.3 104 40.7 104 40.7 68.3 5 68.3 5 37.7" opacity="0"/>
  </g>
</svg>
