<svg id="svgAAPC" xmlns="http://www.w3.org/2000/svg" width="352" height="352" viewBox="0 0 352 352">
  <g fill="none" fill-rule="evenodd">
    <path id="path" d="M35,44.5040762 C65.923781,25.3790938 81.8709474,81.6934366 83.3824574,98.909279 C84.0540858,106.559013 85.9094695,151.429856 69.6595702,154.630593 C53.4096709,157.83133 35,157.83133 35,128.228973 C35,105.315146 80.9991833,113.260782 86.3263372,114.519981 C104.058083,118.711299 103.147757,162.675087 84.6211499,175.751889 C77.5324135,180.755395 69.5281428,184.363129 62.4080576,189.321924 C59.2303291,191.535058 56.2986844,194.178983 53.8523447,197.180873 C49.8447909,202.09852 45.5732563,207.060141 43.1686215,212.930531 C39.9059547,220.895618 38.1876778,229.493205 37.1180848,238.033906 C35.8811067,247.911178 35.415396,257.969348 36.2863346,267.885602 C37.2875821,279.285515 39.1674728,290.72794 42.7021267,301.612183 C44.9476686,308.526869 49.4855602,314.493221 53.4096709,320.613409 C54.2595739,321.938949 55.5154015,323.05879 56.9153296,323.779618 C60.9945456,325.88002 65.320592,327.488908 69.6595702,328.980539 C72.0574893,329.804882 74.541684,330.489002 77.0679045,330.707562 C81.5111924,331.091979 86.0751515,331.658952 90.447372,330.779025 C108.653998,327.114867 116.423005,326.480901 126.321814,313.294403 C139.170478,296.178315 151.702563,259.077907 181.163735,264.141733 C213.884057,269.765746 221.063981,288.120777 247.352398,305.383843 C259.880734,313.610944 281.385804,314.691717 292.125972,302.900502 C322.167076,269.919537 309.538775,222.513121 285.652613,189.58594 C253.215883,144.871766 219.596158,115.590033 162.833468,142.043174 C145.982683,149.896152 159.105809,191.001971 173.068562,198.008653 C218.533016,220.823278 284.978007,198.469698 288.41982,143.819824 C291.244056,98.9759667 194.648555,93.6359722 179.583608,89.6984883 C176.294807,88.8389033 173.281099,86.9025559 170.700356,84.6901209 C147.707655,64.9787936 132.09716,38.9176507 171.530122,25.4651336 C215.41887,10.492529 247.952519,36.1600382 287.363755,58.3540087 C293.58974,61.8600983 298.160679,67.7389647 303.165025,72.8391681 C304.889758,74.5969374 306.65517,76.5196891 307.468688,78.8440479 C313.08161,94.8811208 313.759935,103.915834 316.056162,119.766559" opacity="0"/>
    <circle id="circle" cx="35.5" cy="44.5" r="14.5" fill="#00DFBA"/>
  </g>
</svg>
