<svg id="svgGhostPath" xmlns="http://www.w3.org/2000/svg" width="283" height="312" viewBox="0 0 283 312">
  <path id="ghostPath" fill="none" stroke="red" d="M0,23.5040762 C30.923781,4.3790938 46.8709474,60.6934366 48.3824574,77.909279 C49.0540858,85.559013 50.9094695,130.429856 34.6595702,133.630593 C18.4096709,136.83133 0,136.83133 0,107.228973 C0,84.315146 45.9991833,92.260782 51.3263372,93.519981 C69.058083,97.711299 68.147757,141.675087 49.6211499,154.751889 C42.5324135,159.755395 34.5281428,163.363129 27.4080576,168.321924 C24.2303291,170.535058 21.2986844,173.178983 18.8523447,176.180873 C14.8447909,181.09852 10.5732563,186.060141 8.1686215,191.930531 C4.9059547,199.895618 3.1876778,208.493205 2.1180848,217.033906 C0.8811067,226.911178 0.415396,236.969348 1.2863346,246.885602 C2.2875821,258.285515 4.1674728,269.72794 7.7021267,280.612183 C9.9476686,287.526869 14.4855602,293.493221 18.4096709,299.613409 C19.2595739,300.938949 20.5154015,302.05879 21.9153296,302.779618 C25.9945456,304.88002 30.320592,306.488908 34.6595702,307.980539 C37.0574893,308.804882 39.541684,309.489002 42.0679045,309.707562 C46.5111924,310.091979 51.0751515,310.658952 55.447372,309.779025 C73.653998,306.114867 81.423005,305.480901 91.321814,292.294403 C104.170478,275.178315 116.702563,238.077907 146.163735,243.141733 C178.884057,248.765746 186.063981,267.120777 212.352398,284.383843 C224.880734,292.610944 246.385804,293.691717 257.125972,281.900502 C287.167076,248.919537 274.538775,201.513121 250.652613,168.58594 C218.215883,123.871766 184.596158,94.590033 127.833468,121.043174 C110.982683,128.896152 124.105809,170.001971 138.068562,177.008653 C183.533016,199.823278 249.978007,177.469698 253.41982,122.819824 C256.244056,77.9759667 159.648555,72.6359722 144.583608,68.6984883 C141.294807,67.8389033 138.281099,65.9025559 135.700356,63.6901209 C112.707655,43.9787936 97.09716,17.9176507 136.530122,4.4651336 C180.41887,-10.507471 212.952519,15.1600382 252.363755,37.3540087 C258.58974,40.8600983 263.160679,46.7389647 268.165025,51.8391681 C269.889758,53.5969374 271.65517,55.5196891 272.468688,57.8440479 C278.08161,73.8811208 278.759935,82.915834 281.056162,98.766559" transform="translate(1 1)"/>
</svg>
