<?xml-stylesheet type="text/css" href="../css/stylesheet.css" ?>
<svg id="svgG2" xmlns="http://www.w3.org/2000/svg" width="1368" height="1245" viewBox="0 0 1368 1245">
  <g fill="none" fill-rule="evenodd" transform="translate(0 2)">
    <path id="path" stroke="red" stroke-width="3" d="M0,94.0178267 C123.670407,17.5166587 187.446326,242.777677 193.491158,311.642161 C196.177134,342.241592 203.597186,521.72787 138.610577,534.531025 C73.6239688,547.334181 0,547.334181 0,428.922836 C0,337.266044 183.959966,369.049102 205.264324,374.08598 C276.177134,390.851523 272.536558,566.709522 198.444937,619.017577 C170.095658,639.031925 138.084973,653.463095 109.610323,673.298596 C96.9019491,682.151275 85.1777136,692.727146 75.3943101,704.734901 C59.3672982,724.405807 42.284574,744.252612 32.6679568,767.734553 C19.6198975,799.595416 12.7481633,833.986321 8.47064622,868.149678 C3.52372253,907.659406 1.66125197,947.892737 5.14431023,987.558395 C9.14849994,1033.15879 16.6665601,1078.92923 30.8023505,1122.4669 C39.7827232,1150.1261 57.9306625,1173.99189 73.6239688,1198.47304 C77.0229014,1203.77528 82.0452081,1208.25472 87.6438015,1211.13808 C103.957405,1219.53982 121.258133,1225.97548 138.610577,1231.9421 C148.200337,1235.23953 158.13513,1237.97605 168.237993,1238.8503 C186.007593,1240.388 204.259782,1242.65593 221.745169,1239.13616 C294.55712,1224.47929 325.626939,1221.94339 365.214263,1169.19654 C416.598649,1100.73108 466.716972,952.327045 584.538111,972.582677 C715.393246,995.079093 744.107203,1068.50041 849.239859,1137.55379 C899.343189,1170.46272 985.34628,1174.78589 1028.29837,1127.62026 C1148.43877,995.694267 1097.93566,806.065533 1002.41011,674.354677 C872.689112,495.495085 738.237084,378.366257 511.231695,484.180534 C443.842024,515.592955 496.324038,680.018893 552.16389,708.046074 C733.985366,799.306052 999.712221,709.890284 1013.47672,491.287249 C1024.77141,311.908916 638.466613,290.548592 578.218866,274.798402 C565.066291,271.360006 553.013868,263.614491 542.692959,254.764608 C450.740533,175.918022 388.31103,71.671763 546.01136,17.8608234 C721.531271,-42.0305645 851.639863,60.6411344 1009.25331,149.418454 C1034.15227,163.443039 1052.43237,186.958885 1072.44576,207.360029 C1079.34331,214.39122 1086.40355,222.082352 1089.65697,231.379937 C1112.10417,295.529267 1114.81693,331.668705 1124,395.072632" transform="translate(242)" opacity="0"/>
    <g id="ghostAndWall" transform="translate(-340 -90)">
      <g id="ghosts" fill-rule="nonzero" transform="translate(480 93)">
        <g transform="translate(0)">
          <path fill="#DAE6DF" d="M240,300 L240,320 L220,320 L220,300 L220,280 L240,280 L240,300 Z M200,300 L200,320 L180,320 L180,300 L160,300 L160,280 L160,260 L160,240 L140,240 L140,260 L140,280 L120,280 L120,300 L120,320 L100,320 L100,300 L80,300 L80,280 L80,260 L80,240 L60,240 L60,260 L60,280 L40,280 L40,300 L20,300 L20,280 L0,280 L0,260 L20,260 L20,240 L0,240 L0,220 L0,200 L0,180 L0,160 L0,140 L20,140 L20,120 L0,120 L0,100 L0,80 L20,80 L20,60 L20,40 L40,40 L40,20 L60,20 L80,20 L80,0 L100,0 L120,0 L140,0 L160,0 L160,20 L180,20 L200,20 L200,40 L220,40 L220,60 L220,80 L240,80 L240,100 L240,120 L240,140 L240,160 L220,160 L220,180 L240,180 L240,200 L240,220 L240,240 L240,260 L220,260 L220,280 L200,280 L200,300 Z M0,300 L20,300 L20,320 L0,320 L0,300 Z"/>
          <path fill="#61766A" d="M180,80 L180,120 L140,120 L140,80 L180,80 Z M100,80 L100,120 L60,120 L60,80 L100,80 Z"/>
        </g>
        <g transform="translate(240)">
          <polygon fill="#DAE6DF" points="220 300 220 320 200 320 200 300 200 280 180 280 180 300 180 320 160 320 160 300 160 280 160 260 160 240 140 240 140 260 140 280 140 300 140 320 120 320 120 300 100 300 100 280 80 280 80 260 80 240 60 240 60 260 60 280 40 280 40 300 40 320 20 320 20 300 0 300 0 280 20 280 20 260 0 260 0 240 0 220 0 200 0 180 0 160 0 140 20 140 20 120 0 120 0 100 0 80 20 80 20 60 20 40 40 40 40 20 60 20 80 20 80 0 100 0 120 0 140 0 160 0 160 20 180 20 200 20 200 40 220 40 220 60 220 80 240 80 240 100 240 120 240 140 240 160 220 160 220 180 240 180 240 200 240 220 240 240 220 240 220 260 240 260 240 280 240 300"/>
          <path fill="#61766A" d="M180,80 L180,120 L140,120 L140,80 L180,80 Z M100,80 L100,120 L60,120 L60,80 L100,80 Z"/>
        </g>
        <g transform="translate(480)">
          <path fill="#DAE6DF" d="M240,300 L240,320 L220,320 L220,300 L220,280 L240,280 L240,300 Z M200,300 L200,320 L180,320 L180,300 L160,300 L160,280 L160,260 L160,240 L140,240 L140,260 L140,280 L120,280 L120,300 L120,320 L100,320 L100,300 L80,300 L80,280 L80,260 L80,240 L60,240 L60,260 L60,280 L40,280 L40,300 L20,300 L20,280 L0,280 L0,260 L20,260 L20,240 L0,240 L0,220 L0,200 L0,180 L0,160 L0,140 L20,140 L20,120 L0,120 L0,100 L0,80 L20,80 L20,60 L20,40 L40,40 L40,20 L60,20 L80,20 L80,0 L100,0 L120,0 L140,0 L160,0 L160,20 L180,20 L200,20 L200,40 L220,40 L220,60 L220,80 L240,80 L240,100 L240,120 L240,140 L240,160 L220,160 L220,180 L240,180 L240,200 L240,220 L240,240 L240,260 L220,260 L220,280 L200,280 L200,300 Z M0,300 L20,300 L20,320 L0,320 L0,300 Z"/>
          <path fill="#61766A" d="M180,80 L180,120 L140,120 L140,80 L180,80 Z M100,80 L100,120 L60,120 L60,80 L100,80 Z"/>
        </g>
      </g>
      <path id="whiteWall" fill="#FFF" d="M724,0 L1208,0 L1208,320 L724,320 L724,0 Z M0,0 L484,0 L484,320 L0,320 L0,0 Z" transform="translate(0 93)"/>
    </g>
  </g>
</svg>
