<?xml-stylesheet type="text/css" href="../css/stylesheet.css" ?>
<svg id="svgG3" xmlns="http://www.w3.org/2000/svg" xmlns:xlink="http://www.w3.org/1999/xlink" width="1128" height="1245" viewBox="0 0 1128 1245">

  <defs>
    <rect id="07_ghost-a" width="242" height="320"/>
  </defs>
  <g fill="none" fill-rule="evenodd" transform="translate(2 2)">
    <rect id="canvas3" width="1124" height="1241" fill="#FFF" stroke="red" stroke-width="3"/>
    <path id="path3" stroke="red" stroke-width="2.16" d="M1,67.7291997 C90.1219125,12.6187694 136.081427,174.89383 140.437578,224.502894 C142.373202,246.54632 147.720392,375.845862 100.888405,385.069086 C54.0564188,394.29231 1,394.29231 1,308.990342 C1,242.962 133.569015,265.858095 148.921799,269.486596 C200.024447,281.564271 197.4009,408.25005 144.007472,445.932081 C123.577832,460.350153 100.509634,470.746177 79.9896456,485.03541 C70.8314758,491.412763 62.382516,499.03148 55.3321986,507.681708 C43.7824836,521.852369 -15.1274577,566.574296 4.70719865,697.424015 C24.541855,828.273734 213.942961,836.811838 257.188214,819.273734 C296.520013,803.322732 337.335184,686.043816 422.241877,700.635706 C516.541396,716.841827 537.233838,769.733573 612.996696,819.478715 C649.103188,843.185874 711.080504,846.300228 742.033523,812.322732 C828.611569,717.28499 792.216979,580.678956 723.377392,485.796196 C629.895179,356.94811 533.003593,272.570051 369.4143,348.797257 C320.850569,371.42635 358.671237,489.876623 398.9117,510.067034 C529.939632,575.809516 721.433184,511.395578 731.352441,353.916841 C739.491852,224.695061 461.104944,209.307366 417.687973,197.961137 C408.209694,195.484162 399.524229,189.904395 392.086563,183.529056 C325.821914,126.729018 280.832682,51.6313908 394.477937,12.8667011 C520.964706,-30.2782632 614.726236,43.6850717 728.30888,107.639079 C746.252081,117.742205 759.425462,134.68271 773.847923,149.379424 C778.818577,154.444601 783.906473,159.985191 786.251019,166.683048 C802.427382,212.895378 804.382307,238.929751 811,284.605102" transform="translate(156 174)"/>
    <g transform="translate(28 67)">
      <mask id="07_ghost-b" fill="#fff">
        <use xlink:href="#07_ghost-a"/>
      </mask>
      <g id="maskedGhost" mask="url(#07_ghost-b)">
        <g id="ghosts3" transform="translate(2)">
          <path fill="#DAE6DF" fill-rule="nonzero" d="M240,300 L240,320 L220,320 L220,300 L220,280 L240,280 L240,300 Z M200,300 L200,320 L180,320 L180,300 L160,300 L160,280 L160,260 L160,240 L140,240 L140,260 L140,280 L120,280 L120,300 L120,320 L100,320 L100,300 L80,300 L80,280 L80,260 L80,240 L60,240 L60,260 L60,280 L40,280 L40,300 L20,300 L20,280 L0,280 L0,260 L20,260 L20,240 L0,240 L0,220 L0,200 L0,180 L0,160 L0,140 L20,140 L20,120 L0,120 L0,100 L0,80 L20,80 L20,60 L20,40 L40,40 L40,20 L60,20 L80,20 L80,0 L100,0 L120,0 L140,0 L160,0 L160,20 L180,20 L200,20 L200,40 L220,40 L220,60 L220,80 L240,80 L240,100 L240,120 L240,140 L240,160 L220,160 L220,180 L240,180 L240,200 L240,220 L240,240 L240,260 L220,260 L220,280 L200,280 L200,300 Z M0,300 L20,300 L20,320 L0,320 L0,300 Z"/>
          <path fill="#61766A" fill-rule="nonzero" d="M180,80 L180,120 L140,120 L140,80 L180,80 Z M100,80 L100,120 L60,120 L60,80 L100,80 Z"/>
          <g transform="translate(240)">
            <polygon fill="#DAE6DF" fill-rule="nonzero" points="220 300 220 320 200 320 200 300 200 280 180 280 180 300 180 320 160 320 160 300 160 280 160 260 160 240 140 240 140 260 140 280 140 300 140 320 120 320 120 300 100 300 100 280 80 280 80 260 80 240 60 240 60 260 60 280 40 280 40 300 40 320 20 320 20 300 0 300 0 280 20 280 20 260 0 260 0 240 0 220 0 200 0 180 0 160 0 140 20 140 20 120 0 120 0 100 0 80 20 80 20 60 20 40 40 40 40 20 60 20 80 20 80 0 100 0 120 0 140 0 160 0 160 20 180 20 200 20 200 40 220 40 220 60 220 80 240 80 240 100 240 120 240 140 240 160 220 160 220 180 240 180 240 200 240 220 240 240 220 240 220 260 240 260 240 280 240 300"/>
            <path fill="#61766A" fill-rule="nonzero" d="M180,80 L180,120 L140,120 L140,80 L180,80 Z M100,80 L100,120 L60,120 L60,80 L100,80 Z"/>
          </g>
          <g transform="translate(480)">
            <path fill="#DAE6DF" fill-rule="nonzero" d="M240,300 L240,320 L220,320 L220,300 L220,280 L240,280 L240,300 Z M200,300 L200,320 L180,320 L180,300 L160,300 L160,280 L160,260 L160,240 L140,240 L140,260 L140,280 L120,280 L120,300 L120,320 L100,320 L100,300 L80,300 L80,280 L80,260 L80,240 L60,240 L60,260 L60,280 L40,280 L40,300 L20,300 L20,280 L0,280 L0,260 L20,260 L20,240 L0,240 L0,220 L0,200 L0,180 L0,160 L0,140 L20,140 L20,120 L0,120 L0,100 L0,80 L20,80 L20,60 L20,40 L40,40 L40,20 L60,20 L80,20 L80,0 L100,0 L120,0 L140,0 L160,0 L160,20 L180,20 L200,20 L200,40 L220,40 L220,60 L220,80 L240,80 L240,100 L240,120 L240,140 L240,160 L220,160 L220,180 L240,180 L240,200 L240,220 L240,240 L240,260 L220,260 L220,280 L200,280 L200,300 Z M0,300 L20,300 L20,320 L0,320 L0,300 Z"/>
            <path fill="#61766A" fill-rule="nonzero" d="M180,80 L180,120 L140,120 L140,80 L180,80 Z M100,80 L100,120 L60,120 L60,80 L100,80 Z"/>
          </g>
        </g>
      </g>
    </g>
  </g>
</svg>
