<svg id="svgGhost" xmlns="http://www.w3.org/2000/svg" width="640" height="320" viewBox="0 0 640 320">
  <g id="ghost" fill="none" fill-rule="evenodd">
    <g transform="translate(40)">
      <path fill="#DAE6DF" d="M240,300 L240,320 L220,320 L220,300 L220,280 L240,280 L240,300 Z M200,300 L200,320 L180,320 L180,300 L160,300 L160,280 L160,260 L160,240 L140,240 L140,260 L140,280 L120,280 L120,300 L120,320 L100,320 L100,300 L80,300 L80,280 L80,260 L80,240 L60,240 L60,260 L60,280 L40,280 L40,300 L20,300 L20,280 L0,280 L0,260 L20,260 L20,240 L0,240 L0,220 L0,200 L0,180 L0,160 L0,140 L20,140 L20,120 L0,120 L0,100 L0,80 L20,80 L20,60 L20,40 L40,40 L40,20 L60,20 L80,20 L80,0 L100,0 L120,0 L140,0 L160,0 L160,20 L180,20 L200,20 L200,40 L220,40 L220,60 L220,80 L240,80 L240,100 L240,120 L240,140 L240,160 L220,160 L220,180 L240,180 L240,200 L240,220 L240,240 L240,260 L220,260 L220,280 L200,280 L200,300 Z M0,300 L20,300 L20,320 L0,320 L0,300 Z"/>
      <path fill="#61766A" d="M180,80 L180,120 L140,120 L140,80 L180,80 Z M100,80 L100,120 L60,120 L60,80 L100,80 Z"/>
    </g>
    <g transform="translate(360)">
      <path fill="#DAE6DF" d="M220,300 L220,320 L200,320 L200,300 L200,280 L180,280 L180,300 L180,320 L160,320 L160,300 L160,280 L160,260 L160,240 L140,240 L140,260 L140,280 L140,300 L140,320 L120,320 L120,300 L100,300 L100,280 L80,280 L80,260 L80,240 L60,240 L60,260 L60,280 L40,280 L40,300 L40,320 L20,320 L20,300 L0,300 L0,280 L20,280 L20,260 L0,260 L0,240 L0,220 L0,200 L0,180 L0,160 L0,140 L20,140 L20,120 L0,120 L0,100 L0,80 L20,80 L20,60 L20,40 L40,40 L40,20 L60,20 L80,20 L80,0 L100,0 L120,0 L140,0 L160,0 L160,20 L180,20 L200,20 L200,40 L220,40 L220,60 L220,80 L240,80 L240,100 L240,120 L240,140 L240,160 L220,160 L220,180 L240,180 L240,200 L240,220 L240,240 L220,240 L220,260 L240,260 L240,280 L240,300 L220,300 Z"/>
      <path fill="#61766A" d="M180,80 L180,120 L140,120 L140,80 L180,80 Z M100,80 L100,120 L60,120 L60,80 L100,80 Z"/>
    </g>
  </g>
</svg>
